<svg focusable="false" width="27" height="40" viewBox="0 0 35.51 50.06" xmlns="http://www.w3.org/2000/svg" xmlns:xlink="http://www.w3.org/1999/xlink"><polygon fill="#333" points="17.78 36.57 8.29 32.32 8.29 45.81 17.78 50.06 27.27 45.81 27.27 32.32 17.78 36.57"/><path fill="#333" d="M23.27,22.22c.91.73,8,3,9.68,4.24s2.56,13.3,2.56,13.3H29.4V29L17.78,34.23,6.16,29V39.75H0S.92,27.7,2.56,26.45s8.77-3.51,9.68-4.24l5.58,2.43Z"/><path fill="#333" d="M25.82,10.11c0,5.58-3.59,10.11-8,10.11s-8-4.53-8-10.11S13.36,0,17.8,0s8,4.53,8,10.11"/></svg>