<svg xmlns="http://www.w3.org/2000/svg" viewBox="0 0 40 44"><g id="b098dc3a-bc16-4281-919a-440631d77b6d" data-name="navy"><g id="bc607e2a-01f2-4ecd-a238-6d1bd188e172" data-name="icons/finance/bank"><path id="b6f7402d-39ab-4dc1-8d75-e490ea3c7eac" data-name="icon" d="M20,8.85l15.49,7.7L34.76,18l-3.7-1.85V29.09h2.73v4.43h2.59v1.63H3.62V33.52H6.21V29.09H8.94V16.18L5.24,18l-.73-1.47ZM32.15,30.73H7.85v2.79h24.3ZM20,10.67l-9.42,4.7V29.09H29.42V15.37Zm.82,3.19v2a3.07,3.07,0,0,1,2.73,2.78h0V19H21.91v-.34C21.91,18,21,17.4,20,17.4s-1.91.58-1.91,1.23c0,.27,0,1,2,1.24,2.26.28,3.45,1.27,3.45,2.86a3,3,0,0,1-2.73,2.78h0v2H19.18v-2a3,3,0,0,1-2.73-2.79h0v-.34h1.63v.35C18.08,23.38,19,24,20,24s1.91-.58,1.91-1.23c0-.27,0-1-2-1.24-2.25-.28-3.44-1.27-3.44-2.86a3.07,3.07,0,0,1,2.73-2.78h0v-2Z" style="fill-rule:evenodd"/></g></g></svg>