<svg xmlns="http://www.w3.org/2000/svg" viewBox="0 0 40 44"><g id="f09cf1c5-2b51-4579-9fd2-b631c491c78d" data-name="navy"><path d="M8.52,25.28h6.56v1.64H8.52Zm.13-4.1A1.78,1.78,0,0,1,6.88,19.4V15.57A1.77,1.77,0,0,1,8.65,13.8h3.83a1.78,1.78,0,0,1,1.78,1.77V19.4a1.78,1.78,0,0,1-1.78,1.78Zm0-1.64h3.83a.14.14,0,0,0,.14-.14V15.57a.13.13,0,0,0-.14-.13H8.65a.13.13,0,0,0-.13.13V19.4A.13.13,0,0,0,8.65,19.54ZM36.4,14.19V29.81a3.6,3.6,0,0,1-3.52,3.67H7.12A3.6,3.6,0,0,1,3.6,29.81V14.19a3.6,3.6,0,0,1,3.52-3.67H32.88A3.6,3.6,0,0,1,36.4,14.19Zm-1.64,0a2,2,0,0,0-1.88-2H7.12a2,2,0,0,0-1.88,2V29.81a2,2,0,0,0,1.88,2H32.88a2,2,0,0,0,1.88-2Zm-18,12.73h6.56V25.28H16.72Zm8.2,0h6.56V25.28H24.92Z"/></g></svg>