<svg focusable="false" xmlns="http://www.w3.org/2000/svg" width="30" height="30" viewBox="0 0 30 30"><g><path d="M30,15A15,15,0,1,1,15,0,15,15,0,0,1,30,15" fill="#fff"/><path d="M14.982,1.664a13.335,13.335,0,0,0-4.859,25.754,12.789,12.789,0,0,1,.045-3.826c0.242-1.04,1.564-6.629,1.564-6.629a4.8,4.8,0,0,1-.4-1.979c0-1.856,1.076-3.239,2.414-3.239a1.675,1.675,0,0,1,1.688,1.878c0,1.144-.729,2.855-1.106,4.44A1.938,1.938,0,0,0,16.3,20.475c2.371,0,4.193-2.5,4.193-6.107a5.265,5.265,0,0,0-5.57-5.426A5.772,5.772,0,0,0,8.9,14.729,5.186,5.186,0,0,0,9.9,17.772a0.4,0.4,0,0,1,.092.383c-0.1.422-.326,1.327-0.369,1.513-0.058.244-.193,0.3-0.447,0.179-1.666-.775-2.707-3.211-2.707-5.166,0-4.207,3.057-8.07,8.813-8.07,4.627,0,8.221,3.3,8.221,7.7,0,4.6-2.9,8.295-6.92,8.295a3.568,3.568,0,0,1-3.057-1.531s-0.668,2.547-.83,3.17a14.828,14.828,0,0,1-1.658,3.5A13.337,13.337,0,1,0,14.982,1.664Z" fill="#bc2328"/></g></svg>