<?xml version="1.0" encoding="UTF-8"?>
<svg width="75px" height="75px" viewBox="0 0 75 75" version="1.1" xmlns="http://www.w3.org/2000/svg" xmlns:xlink="http://www.w3.org/1999/xlink">
    <title>credit-icon</title>
    <g id="credit-icon" stroke="none" stroke-width="1" fill="none" fill-rule="evenodd">
        <g id="icons/finance/cashflow-copy-2">
            <g id="Group" fill="#FFFFFF" opacity="0">
                <g id="icon-bounding-box">
                    <rect id="Ø-library-elements/Icons/icon-bounding-box" x="0" y="0" width="75" height="75"></rect>
                </g>
            </g>
            <g id="nested-icon">
                <g id="Group" fill="#FFFFFF" opacity="0">
                    <g id="icon-bounding-box">
                        <rect id="Ø-library-elements/Icons/icon-bounding-box" x="0" y="0" width="75" height="75"></rect>
                    </g>
                </g>
                <path d="M64.1504105,20.9961513 L64.3824078,21.3651523 L61.7292828,23.0151523 C54.6012695,11.4966898 40.2754026,6.69545477 27.6458922,11.5922925 C15.0163819,16.4891302 7.67153312,29.6927478 10.1713931,43.0056833 C12.6712532,56.3186188 24.30556,65.9583919 37.8511578,65.9401523 C47.4352908,65.9576467 56.349325,61.0670813 61.4874754,53.001615 L61.7292828,52.6151523 L64.3824078,54.2651523 C57.03098,66.1391194 42.6935275,71.6939459 29.2611001,67.8723654 C15.8286726,64.0507849 6.5625,51.7806306 6.5625,37.8151523 C6.5625,23.849674 15.8286726,11.5795197 29.2611001,7.75793921 C42.5536064,3.97616686 56.7323813,9.3764771 64.1504105,20.9961513 Z M39.4136578,19.0651523 L39.4136578,25.1276523 C43.230529,25.3012906 46.363357,28.1770098 46.8829134,31.9381199 L46.9136578,32.1901523 L46.9136578,33.1276523 L43.7886578,33.1276523 L43.7886578,32.1901523 C43.7886578,29.9870273 41.0699078,28.1276523 37.8511578,28.1276523 C34.7149398,28.1276523 32.0534096,29.9077312 31.9189828,32.0225258 L31.9136578,32.1901523 L31.9139368,32.2921777 C31.9214703,33.2594922 32.1324078,35.5173845 38.0386578,36.2526523 C43.9261578,36.9995273 46.9136578,39.4151523 46.9136578,43.4401523 C46.5111996,47.2397159 43.4525979,50.1942596 39.6670813,50.4870933 L39.4136578,50.5026523 L39.4136578,56.5651523 L36.2886578,56.5651523 L36.2886578,50.5026523 C32.4717865,50.329014 29.3389585,47.4532948 28.8194022,43.6921847 L28.7886578,43.4401523 L28.7886578,42.5026523 L31.9136578,42.5026523 L31.9136578,43.4401523 C31.9136578,45.6432773 34.6324078,47.5026523 37.8511578,47.5026523 C41.0699078,47.5026523 43.7886578,45.6432773 43.7886578,43.4401523 C43.7886578,42.5339023 43.7886578,40.1307773 37.6511578,39.3589023 C31.7699078,38.6276523 28.7886578,36.2182773 28.7886578,32.1901523 C29.191116,28.3905887 32.2497177,25.436045 36.0352343,25.1432113 L36.2886578,25.1276523 L36.2886578,19.0651523 L39.4136578,19.0651523 Z M58.2011578,26.9026523 L69.1011578,37.8151523 L58.1792828,48.7557773 L55.9699078,46.5464023 L63.1386578,39.3776523 L50.3511578,39.3776523 L50.3511578,36.2526523 L63.1386578,36.2526523 L55.9917828,29.1120273 L58.2011578,26.9026523 Z" id="icon" fill="#000000"></path>
            </g>
        </g>
    </g>
</svg>