<svg focusable="false" width="41" height="31" viewBox="0 0 51.91 40.29" xmlns="http://www.w3.org/2000/svg"><path fill="#333" fill-rule="evenodd" d="M51.81,22.48,47.14,8,31.8,13h7.82a3.14,3.14,0,0,1,3.14,3.14V27.56l7.72-2.49a2.06,2.06,0,0,0,1.33-2.59"/><path fill="#333" fill-rule="evenodd" d="M45.65,3.4l-.64-2A2.06,2.06,0,0,0,42.42.1L6.68,11.63A2.05,2.05,0,0,0,5.35,13H16Z"/><path fill="#333" fill-rule="evenodd" d="M39.62,14.05H2.06A2.06,2.06,0,0,0,0,16.11V38.23a2.06,2.06,0,0,0,2.06,2.06H39.62a2.06,2.06,0,0,0,2.06-2.06V16.11A2.06,2.06,0,0,0,39.62,14.05ZM12.86,35h6.62V32.77H12.86Zm-9.4-8a1,1,0,0,1,1-1h4.7a1,1,0,0,1,.9,1v3a1,1,0,0,1-1,1H4.47a1,1,0,0,1-1-1Zm.05,8h6.62V32.77H3.51Zm28,0h6.62V32.77H31.55Zm-2.73-2.26V35H22.2V32.77h6.62Z"/></svg>