<svg focusable="false" xmlns="http://www.w3.org/2000/svg" width="29.999" height="30" viewBox="0 0 29.999 30"><g><path d="M4.3,4.438a173.048,173.048,0,0,1,21.4,0,4.266,4.266,0,0,1,3.973,3.971,59.594,59.594,0,0,1,0,12.518A4.271,4.271,0,0,1,25.7,24.9a171.763,171.763,0,0,1-21.4,0A4.245,4.245,0,0,1,.33,20.926a59.591,59.591,0,0,1,0-12.518A4.259,4.259,0,0,1,4.3,4.438h0Z" fill="#cd352d" fill-rule="evenodd"/><polygon points="11.912 10.393 19.908 14.584 11.912 18.721 11.912 10.393 11.912 10.393" fill="#fff" fill-rule="evenodd"/></g></svg>