<svg focusable="false" xmlns="http://www.w3.org/2000/svg" xmlns:xlink="http://www.w3.org/1999/xlink" width="40" height="40" viewBox="0 0 28 18"><defs><path id="student-banking-a" d="M544.475828,978.877414 L544.475828,983.198448 C544.475828,985.51569 540.663759,987.393276 535.959966,987.393276 C531.257207,987.393276 527.953069,985.51569 527.953069,983.198448 L527.953069,979.050172 L535.98169,982.256034 L544.475828,978.877414 Z M536.015931,981.046 L526.766621,977.433586 L526.766621,981.217724 C527.046966,981.389448 527.235241,981.694621 527.235241,982.047379 L527.778345,985.748759 L524.744207,985.748759 L525.286276,982.047379 C525.286276,981.69669 525.473517,981.392552 525.749724,981.220828 L525.749724,977.036345 L521.976966,975.562207 L536.000414,970.224276 L550.022828,975.562207 L536.015931,981.046 Z"/></defs><g fill="none" fill-rule="evenodd" transform="translate(-522 -970)"><use fill="#231F20" xlink:href="#student-banking-a"/></g></svg>