<svg xmlns="http://www.w3.org/2000/svg" viewBox="0 0 40 44"><g id="e5d2f069-7f94-4a18-819a-c30d7b940c40" data-name="navy"><path d="M20,39.32l-.28-.1A21.85,21.85,0,0,1,6.85,27.9h0C3.72,21.1,4.25,9.65,4.27,9.17l0-.78h.78A29.4,29.4,0,0,0,19.56,5L20,4.68l.44.27A29.3,29.3,0,0,0,34.91,8.39h.78l0,.78c0,.49.55,11.94-2.58,18.74A21.85,21.85,0,0,1,20.28,39.23ZM8.35,27.22A20.2,20.2,0,0,0,20,37.58,20.16,20.16,0,0,0,31.66,27.22c2.52-5.46,2.52-14.51,2.46-17.2A31.23,31.23,0,0,1,20,6.59,31.23,31.23,0,0,1,5.88,10c-.06,2.69-.06,11.74,2.46,17.2Z"/></g></svg>