<svg focusable="false" width="40" height="20" viewBox="0 0 49.17 25.03" xmlns="http://www.w3.org/2000/svg"><g><path fill="#333" fill-rule="evenodd" d="M49.14,20.13c-1.19.44-5,.23-5,.23l-2.94.06a6,6,0,0,1-11.61.07H17.27a6,6,0,0,1-11.58,0H.12C-.16,19.56,0,10,1.05,8.61,2.26,7,8.26.51,8.26.51,9,0,22.47-.31,25.79.4c1.6.34,10,6.94,10,6.94s10.26,3,11.46,4.17c2.3,2.3,1.85,8.62,1.85,8.62M11.48,15.21A3.84,3.84,0,1,0,15.32,19a3.84,3.84,0,0,0-3.84-3.84m23.94,0A3.84,3.84,0,1,0,39.26,19a3.84,3.84,0,0,0-3.84-3.83"/></g></svg>