<svg focusable="false" width="28" height="32" viewBox="0 0 35.48 41.05" xmlns="http://www.w3.org/2000/svg"><path fill="#333" fill-rule="evenodd" d="M0,25A14.73,14.73,0,0,1,14.85,10.18a17,17,0,0,1,8.65,2.25c3-3.75,8.73-2.81,8.73-2.81L29,16.5a22.06,22.06,0,0,0,6.5,4.34v7.1c-3.53,3.35-6.31,6.73-9.57,8.33L26.4,41,24.12,41l-2.29-3.34a26.83,26.83,0,0,1-6,.61,18.23,18.23,0,0,1-5.13-.73L8.34,41,6.06,41l.55-5.2C2.57,33.3,0,29.29,0,25"/><path fill="#333" fill-rule="evenodd" d="M14.83,7.49a17.56,17.56,0,0,1,5.28.79,5.74,5.74,0,0,0,.56-2.45A5.85,5.85,0,0,0,9,5.84a5.76,5.76,0,0,0,.61,2.57,15.28,15.28,0,0,1,5.24-.91"/></svg>