<svg focusable="false" xmlns="http://www.w3.org/2000/svg" width="30.001" height="30" viewBox="0 0 30.001 30"><g><path d="M27.781,0H2.215A2.188,2.188,0,0,0,0,2.16V27.836A2.191,2.191,0,0,0,2.215,30H27.781A2.2,2.2,0,0,0,30,27.836V2.16A2.192,2.192,0,0,0,27.781,0Z" fill="#047cb7"/><path d="M4.448,11.246H8.9V25.563H4.448V11.246ZM6.674,4.129a2.58,2.58,0,1,1-2.58,2.58,2.58,2.58,0,0,1,2.58-2.58" fill="#fff"/><path d="M11.689,11.246h4.268V13.2h0.06a4.681,4.681,0,0,1,4.21-2.311c4.506,0,5.338,2.965,5.338,6.82v7.852H21.118V18.6c0-1.658-.031-3.795-2.314-3.795-2.314,0-2.669,1.809-2.669,3.676v7.082H11.689V11.246Z" fill="#fff"/></g></svg>