<svg focusable="false" xmlns="http://www.w3.org/2000/svg" width="30" height="30" viewBox="0 0 30 30"><path d="M26.539,12.69H23.927a9.23,9.23,0,1,1-17.854,0H3.461v12.7a1.154,1.154,0,0,0,1.154,1.152H25.384a1.154,1.154,0,0,0,1.155-1.152V12.69Zm0-8.075a1.153,1.153,0,0,0-1.155-1.153H21.923A1.153,1.153,0,0,0,20.77,4.614V8.076A1.154,1.154,0,0,0,21.923,9.23h3.461a1.154,1.154,0,0,0,1.155-1.153V4.614ZM15,9.23A5.77,5.77,0,1,0,20.77,15,5.769,5.769,0,0,0,15,9.23M26.539,30H3.461A3.462,3.462,0,0,1,0,26.537V3.461A3.461,3.461,0,0,1,3.461,0H26.539A3.461,3.461,0,0,1,30,3.461V26.537A3.462,3.462,0,0,1,26.539,30" fill="#867464" fill-rule="evenodd"/></svg>