<svg xmlns="http://www.w3.org/2000/svg" viewBox="0 0 40 44"><g id="e20f0de2-25d9-4b25-889b-f8c6eb068da4" data-name="navy"><path d="M26.59,21.26V18.82h1.64v2.44ZM34.34,21a11.27,11.27,0,0,0-4.08-5.63l.41-5.95L25,12.76l-.28-.08-.44,1.58.94.28,3.55-2.12-.24,3.7.59.45a9.62,9.62,0,0,1,3.65,5l.22.79,2.59.58v2.79l-2.94.54-.3.64a10.93,10.93,0,0,1-4.92,4.91l-1.27.67,1.92,3.26-2,1.14-2.2-3.73-.93.16a16.89,16.89,0,0,1-6,0l-.92-.17-2.25,3.7-2-1.17,2-3.23-1.26-.69A9.55,9.55,0,0,1,7,23.58a9.51,9.51,0,0,1,5.46-8c.16-.09.35-.18.53-.26l-.66-1.5c-.22.09-.46.21-.67.32A11.24,11.24,0,0,0,5.36,23a1,1,0,0,1-.57-.2c-.09-.07-.35-.29-.35-1H2.8a2.76,2.76,0,0,0,1,2.28,2.68,2.68,0,0,0,1.63.56A11.31,11.31,0,0,0,11.47,33L9.54,36.23,14.39,39l2.5-4.1a18.46,18.46,0,0,0,6.16,0l2.45,4.13,4.87-2.76-1.9-3.21a12.51,12.51,0,0,0,5.33-5.42l3.42-.62,0-5.47Zm-20-6.88a5.44,5.44,0,1,1,7.55.35l-.25.22-.34,0a15.75,15.75,0,0,0-5,.55l-.33.08-.29-.16A5.24,5.24,0,0,1,14.39,14.1Zm1.33-6.5a3.91,3.91,0,0,0-.56.66,3.79,3.79,0,0,0,1.08,5.25A17.19,17.19,0,0,1,21.09,13a3.8,3.8,0,0,0-2.66-6.43h-.09a3.79,3.79,0,0,0-2.63,1.05Z"/></g></svg>