<?xml version="1.0" encoding="utf-8"?>
<svg viewBox="1.9699445962905884 4.974273681640625 20.073545455932617 14.042646408081055" xmlns="http://www.w3.org/2000/svg">
  <defs>
    <style>.cls-1{fill:none;}.cls-2{fill:#e31837;}</style>
  </defs>
  <title>bofa_icon_card2_186rgb</title>
  <g id="_24_X_24_BOX" data-name="24 X 24 BOX">
    <rect class="cls-1" width="24" height="24"/>
  </g>
  <g id="ICON_OUTLINES" data-name="ICON OUTLINES">
    <rect class="cls-2" x="5" y="14" width="4" height="1"/>
    <path class="cls-2" d="M7.417,11.5A1.084,1.084,0,0,0,8.5,10.417V8.083A1.084,1.084,0,0,0,7.417,7H5.083A1.084,1.084,0,0,0,4,8.083v2.334A1.084,1.084,0,0,0,5.083,11.5ZM5,10.417V8.083A.085.085,0,0,1,5.083,8H7.417a.085.085,0,0,1,.083.083v2.334a.085.085,0,0,1-.083.083H5.083A.085.085,0,0,1,5,10.417Z"/>
    <path class="cls-2" d="M19.849,5H4.151A2.2,2.2,0,0,0,2,7.238v9.524A2.2,2.2,0,0,0,4.151,19h15.7A2.2,2.2,0,0,0,22,16.762V7.238A2.2,2.2,0,0,0,19.849,5ZM21,16.762A1.2,1.2,0,0,1,19.849,18H4.151A1.2,1.2,0,0,1,3,16.762V7.238A1.2,1.2,0,0,1,4.151,6h15.7A1.2,1.2,0,0,1,21,7.238Z"/>
    <rect class="cls-2" x="10" y="14" width="4" height="1"/>
    <rect class="cls-2" x="15" y="14" width="4" height="1"/>
  </g>
</svg>