<svg xmlns="http://www.w3.org/2000/svg" viewBox="0 0 40 44"><g id="fabc8b7e-1554-4eee-a6c1-c754aa043396" data-name="navy"><path d="M34.68,15.43H32.21l-2.1-5.19a2.31,2.31,0,0,0-2-1.37H11.92a2.32,2.32,0,0,0-2,1.36l-2.1,5.2H5.32A1.77,1.77,0,0,0,3.6,17.22V18.5a1.83,1.83,0,0,0,1.72,1.85h.49l-.57,1.18V33.41A1.84,1.84,0,0,0,7.1,35.12h3a1.73,1.73,0,0,0,1.72-1.71V31.84H28.2v1.57a1.73,1.73,0,0,0,1.72,1.71h3a1.84,1.84,0,0,0,1.86-1.71V21.53l-.57-1.18h.49A1.83,1.83,0,0,0,36.4,18.5V17.22A1.77,1.77,0,0,0,34.68,15.43Zm.08,3.07a.54.54,0,0,1-.08.21H31.57l1.55,3.2V33.35a.34.34,0,0,1-.23.13l-3.06-.07V30.2H10.16l-.08,3.28h-3l-.22-.07V21.91l1.56-3.2H5.36a.3.3,0,0,1-.12-.21V17.22a.19.19,0,0,1,.08-.15H8.9l2.52-6.22a.66.66,0,0,1,.5-.34H28.08a.66.66,0,0,1,.5.34l2.52,6.22h3.57a.2.2,0,0,1,.09.15ZM11.39,22.81a2.88,2.88,0,1,0,2.87,2.88h0A2.88,2.88,0,0,0,11.39,22.81Zm0,4.1a1.21,1.21,0,0,1-1.23-1.22,1.24,1.24,0,0,1,1.23-1.24,1.23,1.23,0,0,1,1.23,1.23h0A1.23,1.23,0,0,1,11.39,26.91Zm17.22-4.1a2.88,2.88,0,1,0,2.87,2.88h0A2.88,2.88,0,0,0,28.61,22.81Zm0,4.1a1.21,1.21,0,0,1-1.23-1.22,1.24,1.24,0,0,1,1.23-1.24,1.23,1.23,0,0,1,1.23,1.23h0A1.23,1.23,0,0,1,28.61,26.91Z"/></g></svg>