<svg width="40px" height="44px" viewBox="0 0 40 44" version="1.1" xmlns="http://www.w3.org/2000/svg" xmlns:xlink="http://www.w3.org/1999/xlink"><g id="Artboard" stroke="none" stroke-width="1" fill="none" fill-rule="evenodd"><g id="icons/finance/investing" transform="translate(0.000000, 2.000000)"><path d="M18.3333333,6.66666667 L18.3333333,8.33333333 C10.9695367,8.33333333 5,14.30287 5,21.6666667 C5,29.0304633 10.9695367,35 18.3333333,35 C25.6937032,34.9917335 31.6584002,29.0270365 31.6666667,21.6666667 L31.6666667,21.6666667 L33.3333333,21.6666667 C33.3333333,29.9509379 26.6176046,36.6666667 18.3333333,36.6666667 C10.0490621,36.6666667 3.33333333,29.9509379 3.33333333,21.6666667 C3.33333333,13.3823954 10.0490621,6.66666667 18.3333333,6.66666667 L18.3333333,6.66666667 Z M21.6666667,3.33333333 C29.9471303,3.34251855 36.6574815,10.0528697 36.6666667,18.3333333 L36.6666667,18.3333333 L36.6666667,19.1666667 L20.8333333,19.1666667 L20.8333333,3.33333333 Z M22.5,5.02666667 L22.5,17.5 L34.9733333,17.5 C34.545833,10.7962213 29.2037787,5.45416701 22.5,5.02666667 L22.5,5.02666667 Z" id="icon" fill="#000000"/></g></g></svg>