<svg focusable="false" xmlns="http://www.w3.org/2000/svg" width="1440" height="500" viewBox="0 0 1440 500"><defs><style type="text/css">.mhcls1{fill:#fff}.mhcls2{fill:url(#mh-lg)}.mhcls3{fill:url(#mh-lg-2)}.mhcls4{fill:url(#mh-lg-3)}.mhcls5{fill:url(#mh-lg-4)}.mhcls6{fill:url(#mh-lg-5)}.mhcls7{fill:url(#mh-lg-6)}</style><linearGradient id="mh-lg" x1="1105.66" y1="63.16" x2="1141.58" y2="-54.33" gradientUnits="userSpaceOnUse"><stop offset="0" stop-color="#ededee"/><stop offset=".03" stop-color="#ededee" stop-opacity=".92"/><stop offset=".11" stop-color="#ededee" stop-opacity=".7"/><stop offset=".19" stop-color="#ededee" stop-opacity=".51"/><stop offset=".28" stop-color="#ededee" stop-opacity=".36"/><stop offset=".37" stop-color="#ededee" stop-opacity=".23"/><stop offset=".46" stop-color="#ededee" stop-opacity=".13"/><stop offset=".56" stop-color="#ededee" stop-opacity=".06"/><stop offset=".67" stop-color="#ededee" stop-opacity=".01"/><stop offset=".8" stop-color="#ededee" stop-opacity="0"/></linearGradient><linearGradient id="mh-lg-2" x1="668.16" y1="120.88" x2="722.9" y2="-38.1" gradientUnits="userSpaceOnUse"><stop offset="0" stop-color="#ededee"/><stop offset=".07" stop-color="#ededee" stop-opacity=".82"/><stop offset=".18" stop-color="#ededee" stop-opacity=".57"/><stop offset=".28" stop-color="#ededee" stop-opacity=".37"/><stop offset=".37" stop-color="#ededee" stop-opacity=".21"/><stop offset=".46" stop-color="#ededee" stop-opacity=".09"/><stop offset=".54" stop-color="#ededee" stop-opacity=".02"/><stop offset=".6" stop-color="#ededee" stop-opacity="0"/></linearGradient><linearGradient id="mh-lg-3" x1="1217.36" y1="358.03" x2="1439.93" y2="683.59" gradientUnits="userSpaceOnUse"><stop offset="0" stop-color="#ededee"/><stop offset=".02" stop-color="#ededee" stop-opacity=".83"/><stop offset=".04" stop-color="#ededee" stop-opacity=".66"/><stop offset=".07" stop-color="#ededee" stop-opacity=".5"/><stop offset=".1" stop-color="#ededee" stop-opacity=".36"/><stop offset=".13" stop-color="#ededee" stop-opacity=".25"/><stop offset=".17" stop-color="#ededee" stop-opacity=".16"/><stop offset=".21" stop-color="#ededee" stop-opacity=".09"/><stop offset=".27" stop-color="#ededee" stop-opacity=".04"/><stop offset=".34" stop-color="#ededee" stop-opacity=".01"/><stop offset=".55" stop-color="#ededee" stop-opacity="0"/></linearGradient><linearGradient id="mh-lg-4" x1="912.11" y1="206.71" x2="1081.23" y2="524.79" gradientUnits="userSpaceOnUse"><stop offset="0" stop-color="#ededee"/><stop offset=".03" stop-color="#ededee" stop-opacity=".87"/><stop offset=".07" stop-color="#ededee" stop-opacity=".69"/><stop offset=".12" stop-color="#ededee" stop-opacity=".52"/><stop offset=".17" stop-color="#ededee" stop-opacity=".38"/><stop offset=".22" stop-color="#ededee" stop-opacity=".26"/><stop offset=".28" stop-color="#ededee" stop-opacity=".17"/><stop offset=".35" stop-color="#ededee" stop-opacity=".09"/><stop offset=".44" stop-color="#ededee" stop-opacity=".04"/><stop offset=".55" stop-color="#ededee" stop-opacity=".01"/><stop offset=".82" stop-color="#ededee" stop-opacity="0"/></linearGradient><linearGradient id="mh-lg-5" x1="360.43" y1="226.88" x2="478.03" y2="415.07" gradientUnits="userSpaceOnUse"><stop offset=".43" stop-color="#ededee" stop-opacity="0"/><stop offset=".51" stop-color="#ededee" stop-opacity=".01"/><stop offset=".59" stop-color="#ededee" stop-opacity=".06"/><stop offset=".66" stop-color="#ededee" stop-opacity=".14"/><stop offset=".73" stop-color="#ededee" stop-opacity=".25"/><stop offset=".8" stop-color="#ededee" stop-opacity=".38"/><stop offset=".87" stop-color="#ededee" stop-opacity=".56"/><stop offset=".93" stop-color="#ededee" stop-opacity=".76"/><stop offset="1" stop-color="#ededee" stop-opacity=".99"/><stop offset="1" stop-color="#ededee"/></linearGradient><linearGradient id="mh-lg-6" x1="196.23" y1="90.31" x2="279.82" y2="254.36" gradientUnits="userSpaceOnUse"><stop offset=".22" stop-color="#ededee" stop-opacity="0"/><stop offset=".43" stop-color="#ededee" stop-opacity=".01"/><stop offset=".54" stop-color="#ededee" stop-opacity=".04"/><stop offset=".62" stop-color="#ededee" stop-opacity=".1"/><stop offset=".7" stop-color="#ededee" stop-opacity=".18"/><stop offset=".76" stop-color="#ededee" stop-opacity=".28"/><stop offset=".83" stop-color="#ededee" stop-opacity=".41"/><stop offset=".88" stop-color="#ededee" stop-opacity=".57"/><stop offset=".94" stop-color="#ededee" stop-opacity=".74"/><stop offset=".99" stop-color="#ededee" stop-opacity=".94"/><stop offset="1" stop-color="#ededee"/></linearGradient></defs><g><path class="mhcls1" d="M0 0h1440v500H0z"/><path class="mhcls1" d="M0 0h1440v500H0z"/><path class="mhcls2" d="M930.67 0c68.12 22.17 134.3 45.46 190.86 68 61.1-23.82 135.63-49.57 197.75-68z"/><path class="mhcls3" d="M831.62 0H317.56C450.43 36 665 108.76 854.2 184.94c74.84-36.53 143.36-67.59 217.86-98C996.23 56 912.12 26.24 831.62 0z"/><path class="mhcls4" d="M1440 500V252c-143.29 72.29-286.08 157.09-420.72 248z"/><path class="mhcls5" d="M1420 0c-337.49 97.83-697.12 293.07-989.75 500h471.63c179.64-118.83 364.55-220.63 538.12-298.91V0z"/><path class="mhcls6" d="M322.79 500C472.11 396 646 289.68 809.63 207.87c-71.75-28.71-152-59.9-208-80.1-154 61.34-379.86 179.3-572.09 307.45 46.79 21.44 92.14 42.6 136.86 64.77z"/><path class="mhcls7" d="M0 394.14C176.81 284 390.72 175.71 558.52 112.36c-65.2-23.5-149.46-51.67-207.81-69.57A3528.27 3528.27 0 0 0 0 190.29z"/></g></svg>