<svg focusable="false" xmlns="http://www.w3.org/2000/svg" viewBox="0 0 44 44"><rect fill="#dc1431" width="44" height="44" rx="7.99" ry="7.99"/><path fill="#fff" fill-rule="evenodd" d="M30.25,16.25a67.2,67.2,0,0,0-9-3.12c-1,.2-1.95.42-2.91.67a61.64,61.64,0,0,1,8.86,3.3q1.5-.46,3-.85"/><path fill="#fff" fill-rule="evenodd" d="M37.68,18.71A78.7,78.7,0,0,0,17.41,28.86q2.31,1.4,4.51,3A82.46,82.46,0,0,1,41.14,20.64q-1.71-1-3.46-1.93"/><path fill="#fff" fill-rule="evenodd" d="M18.09,17.75c1.12.43,2.22.9,3.32,1.4a73.78,73.78,0,0,0-10,4.91c-1.08-.56-2.18-1.09-3.3-1.58a69.47,69.47,0,0,1,10-4.73"/><path fill="#fff" fill-rule="evenodd" d="M13.95,16.31A57.84,57.84,0,0,0,3.58,20.69c1,.37,2.09.77,3.12,1.19a59.61,59.61,0,0,1,10.07-4.63q-1.39-.51-2.81-.94"/><path fill="#fff" fill-rule="evenodd" d="M25.62,17.61a61.77,61.77,0,0,0-8.81-3.39c-1.06.3-2.12.63-3.17,1a61.52,61.52,0,0,1,9.07,3.43c1-.36,1.93-.71,2.91-1"/><path fill="#fff" fill-rule="evenodd" d="M11.58,25.7q2.16,1,4.25,2.24a74.23,74.23,0,0,1,20.7-9.81q-1.9-.94-3.86-1.76A71.69,71.69,0,0,0,11.58,25.7Z"/></svg>