<svg focusable="false" xmlns="http://www.w3.org/2000/svg" width="36.914" height="30" viewBox="0 0 36.914 30"><path d="M36.914,3.551a15.169,15.169,0,0,1-4.35,1.193A7.6,7.6,0,0,0,35.9.553a15.187,15.187,0,0,1-4.811,1.838A7.582,7.582,0,0,0,18.18,9.3,21.5,21.5,0,0,1,2.57,1.387,7.579,7.579,0,0,0,4.914,11.5a7.542,7.542,0,0,1-3.432-.946v0.095A7.577,7.577,0,0,0,7.559,18.07a7.621,7.621,0,0,1-3.422.131,7.587,7.587,0,0,0,7.076,5.26,15.194,15.194,0,0,1-9.4,3.241A15.57,15.57,0,0,1,0,26.6,21.439,21.439,0,0,0,11.609,30c13.93,0,21.549-11.541,21.549-21.549q0-.492-0.023-0.981A15.394,15.394,0,0,0,36.914,3.551Z" fill="#2ea3dc"/></svg>