<svg id="bf32280a-b0a4-4aae-89be-4679c6949f79" data-name="red" xmlns="http://www.w3.org/2000/svg" viewBox="0 0 40 44"><path d="M23.13,19.54v-.49c0-1.16-1.43-2.14-3.12-2.14s-3.12,1-3.12,2.14c0,.47,0,1.73,3.22,2.13s4.66,1.66,4.66,3.77a4.15,4.15,0,0,1-3.94,3.71v3.18H19.19V28.66A4.15,4.15,0,0,1,15.25,25v-.49h1.64V25c0,1.16,1.43,2.14,3.12,2.14s3.12-1,3.12-2.14c0-.47,0-1.73-3.22-2.14s-4.66-1.65-4.66-3.76a4.15,4.15,0,0,1,3.94-3.71V12.16h1.64v3.18a4.15,4.15,0,0,1,3.94,3.71v.49ZM20,36.76A14.76,14.76,0,1,1,32.55,14.23l1.39-.87A16.41,16.41,0,1,0,28.63,36a16.62,16.62,0,0,0,5.31-5.31l-1.39-.87A14.7,14.7,0,0,1,20,36.76Zm10.67-9L36.42,22l-5.73-5.73-1.16,1.16,3.76,3.75H26.57v1.64h6.72l-3.77,3.76Z"/></svg>