<svg focusable="false" xmlns="http://www.w3.org/2000/svg" width="30" height="29.372" viewBox="0 0 30 29.372"><path d="M0 0v29.372h30V0H0zm24.889 2.248a1.738 1.738 0 1 1-1.739 1.737 1.736 1.736 0 0 1 1.739-1.737zm-20.007 0A1.738 1.738 0 1 1 3.14 3.984a1.737 1.737 0 0 1 1.742-1.736zm2.266 24.406H3.14v-4.007h4.008v4.007zm0-6.129H3.14v-4.008h4.008v4.008zm0-6.126H3.14v-4.008h4.008V14.4zm6.511 12.255H9.654v-4.007h4.006v4.007zm0-6.129H9.654v-4.008h4.006v4.008zm0-6.126H9.654v-4.008h4.006V14.4zm6.513 6.126h-4.007v-4.008h4.007v4.008zm0-6.126h-4.007v-4.008h4.007V14.4zm6.511 6.126h-4.01v-4.008h4.01v4.008zm0-6.126h-4.01v-4.008h4.01V14.4z" fill="currentColor"/></svg>