<svg xmlns="http://www.w3.org/2000/svg" viewBox="0 0 40 44"><g id="b7555ffb-384d-48c9-80a7-da306823120e" data-name="navy"><path id="a3cb606f-3a73-4305-b377-ead51c0ce7af" data-name="icon-tax-black-new" d="M31.55,18.7V37H8.25V7.05H19.9V5.45H6.65v33.3H33.2v-20ZM22.15,5.25v11.2h11.2ZM23.8,9.3l5.45,5.4H23.8Zm-8.7,17c-2.65,0-3.4-1.8-3.4-3.85s.7-3.9,3.4-3.9,3.3,2.05,3.3,3.9C18.45,24.4,17.6,26.25,15.1,26.25Zm.05-6.3C13.9,20,13.7,21.3,13.7,22.4c0,1.35.25,2.4,1.45,2.4s1.35-1.15,1.35-2.4C16.5,21.35,16.35,20,15.15,20Zm2.25,11.6H15.75l5.9-13.7h1.6Zm6.75-.3c-2.65,0-3.4-1.8-3.4-3.85,0-1.9.7-3.9,3.4-3.9s3.3,2.05,3.3,3.9C27.45,29.4,26.65,31.25,24.15,31.25Zm0-6.3C22.9,25,22.7,26.3,22.7,27.4c0,1.35.25,2.4,1.45,2.4s1.35-1.15,1.35-2.45C25.5,26.35,25.35,25,24.15,25Z"/></g></svg>