<svg xmlns="http://www.w3.org/2000/svg" viewBox="0 0 24 24"><defs><style>.cls-1{fill:none;}.cls-2{fill:#e31837;}</style></defs><title>bofa_icon_bank2_186rgb</title><g id="ICON_ART" data-name="ICON ART"><rect class="cls-1" width="24" height="24"/><path class="cls-2" d="M20.417,19V16.3H18.75V8.416l2.264,1.127.445-.9L12,3.937,2.541,8.647l.445.9L5.25,8.416V16.3H3.583V19H2v1H22V19ZM12,5.054l5.75,2.864V16.3H6.25V7.918ZM4.583,17.3H19.417V19H4.583Z"/><path class="cls-2" d="M9.833,12.2v.209a1.85,1.85,0,0,0,1.667,1.7v1.216h1V14.113a1.85,1.85,0,0,0,1.667-1.7c0-.971-.729-1.575-2.106-1.747-1.228-.153-1.228-.589-1.228-.753,0-.4.545-.75,1.167-.75s1.167.35,1.167.75v.208h1V9.913a1.878,1.878,0,0,0-1.667-1.7V7h-1V8.214a1.878,1.878,0,0,0-1.667,1.7c0,.97.728,1.573,2.1,1.745,1.23.154,1.23.591,1.23.755,0,.4-.545.749-1.167.749s-1.167-.35-1.167-.749V12.2Z"/></g></svg>